<svg xmlns="http://www.w3.org/2000/svg" viewBox="0 0 32 32">
  <rect width="32" height="32" rx="6" fill="#22d3ee"/>
  <g fill="#060810">
    <path d="M9.1187 25.6768L6.4307 25.6768L6.4307 12.5952L9.0291 12.5952L9.0291 14.3872Q9.3517 13.4554 10.0506 12.9357Q10.7494 12.4160 11.7350 12.4160L11.7350 12.4160Q12.6848 12.4160 13.4016 12.9088Q14.1184 13.4016 14.5216 14.2618Q14.9248 15.1219 14.9248 16.2688L14.9248 16.2688L14.9248 18.7776Q14.9248 19.9066 14.5216 20.7757Q14.1184 21.6448 13.4016 22.1376Q12.6848 22.6304 11.7350 22.6304L11.7350 22.6304Q10.7674 22.6304 10.0685 22.1197Q9.3696 21.6090 9.0470 20.6950L9.0470 20.6950L9.1187 22.9888L9.1187 25.6768ZM10.6957 20.3008L10.6957 20.3008Q11.4304 20.3008 11.8336 19.8797Q12.2368 19.4586 12.2368 18.6880L12.2368 18.6880L12.2368 16.3584Q12.2368 15.5699 11.8336 15.1578Q11.4304 14.7456 10.6957 14.7456L10.6957 14.7456Q9.9251 14.7456 9.5219 15.1846Q9.1187 15.6237 9.1187 16.4480L9.1187 16.4480L9.1187 18.5984Q9.1187 19.4227 9.5219 19.8618Q9.9251 20.3008 10.6957 20.3008Z"/>
    <path d="M19.2435 22.4512L16.3584 22.4512L19.8707 15.6954L16.5914 9.3696L19.5482 9.3696L20.9101 12.2368Q21.1072 12.6310 21.2416 12.9536Q21.3760 13.2762 21.4118 13.4195L21.4118 13.4195Q21.4477 13.2762 21.5731 12.9536Q21.6986 12.6310 21.8778 12.2368L21.8778 12.2368L23.2755 9.3696L26.1606 9.3696L22.8813 15.6954L26.3936 22.4512L23.4368 22.4512L21.8598 19.2256Q21.6806 18.8314 21.5373 18.4909Q21.3939 18.1504 21.3222 17.9712L21.3222 17.9712Q21.2685 18.1504 21.1430 18.4909Q21.0176 18.8314 20.8205 19.2256L20.8205 19.2256L19.2435 22.4512Z"/>
  </g>
</svg>